#!OML:ASF G:\JayActor3\Patient Classification 1\Patient 1\Session 5\male.ASF
:FULLY-SPECIFIED
:DEGREES
1121
root -47.527 16.437 -5.1778 -880.262 86.6431 -901.153
lowerback 29.4175 -1.70879 1.58836
upperback 7.01921 -1.15714 -1.00979
thorax -8.35934 -0.304011 -1.67924
lowerneck 6.97775 -0.645167 0.537714
upperneck -18.2063 -0.0123993 2.96419
head -6.69029 -0.163898 0.847264
rclavicle -1.49089e-014 -1.13307e-014
rhumerus -27.6445 4.14413 -89.0645
rradius 36.5838
rwrist -3.03599
rhand -21.2118 -6.69973
rfingers 7.12502
rthumb 5.16986 -36.6167
lclavicle -1.49089e-014 -1.13307e-014
lhumerus -28.6078 -7.55401 88.1625
lradius 34.992
lwrist 23.1314
lhand -20.5066 10.016
lfingers 7.12502
lthumb 5.85071 39.9152
rfemur -40.5739 4.89064 26.3571
rtibia 50.0157
rfoot -31.5488 -12.071
rtoes 14.1989
lfemur -61.3738 5.42237 -27.7362
ltibia 35.9606
lfoot 13.1398 -5.41558
ltoes -17.5504
1122
root -47.6245 16.4397 -5.16958 -880.588 86.6155 -901.428
lowerback 29.4109 -1.71109 1.59562
upperback 7.04953 -1.15486 -1.01111
thorax -8.32186 -0.301222 -1.6859
lowerneck 6.95307 -0.669432 0.562393
upperneck -18.0855 -0.0485365 2.97325
head -6.64682 -0.184242 0.848268
rclavicle 2.18663e-014 2.54444e-014
rhumerus -27.6899 4.06642 -89.0151
rradius 36.5716
rwrist -3.01276
rhand -21.2422 -6.68956
rfingers 7.12502
rthumb 5.14053 -36.6072
lclavicle 2.18663e-014 2.54444e-014
lhumerus -28.6848 -7.61863 88.2345
lradius 34.9922
lwrist 23.1248
lhand -20.436 10.0577
lfingers 7.12502
lthumb 5.91888 39.955
rfemur -41.0026 4.69404 26.372
rtibia 50.1596
rfoot -31.3426 -11.7563
rtoes 14.9644
lfemur -61.9273 5.3352 -27.2991
ltibia 38.3968
lfoot 11.8989 -5.1951
ltoes -17.7632
1123
root -47.7198 16.4396 -5.16205 -880.95 86.5983 -901.74
lowerback 29.4167 -1.70452 1.59646
upperback 7.07308 -1.14394 -1.01693
thorax -8.29765 -0.29462 -1.69689
lowerneck 6.93727 -0.698559 0.601098
upperneck -17.999 -0.0863502 2.98712
head -6.61604 -0.206628 0.848759
rclavicle -9.74045e-015 6.16232e-015
rhumerus -27.7562 3.96107 -88.9643
rradius 36.5445
rwrist -2.96885
rhand -21.296 -6.63208
rfingers 7.12502
rthumb 5.08854 -36.551
lclavicle -9.74045e-015 6.16232e-015
lhumerus -28.7695 -7.6945 88.3039
lradius 34.9868
lwrist 23.1216
lhand -20.3675 10.0627
lfingers 7.12502
lthumb 5.98503 39.9581
rfemur -41.4303 4.51635 26.3771
rtibia 50.3157
rfoot -31.1492 -11.4425
rtoes 15.7138
lfemur -62.4735 5.21213 -26.8275
ltibia 41.001
lfoot 10.8485 -4.78911
ltoes -17.3992
1124
root -47.8133 16.4372 -5.15493 -881.255 86.5804 -901.999
lowerback 29.4332 -1.70558 1.57211
upperback 7.09973 -1.14773 -1.00744
thorax -8.27493 -0.294259 -1.67089
lowerneck 6.89294 -0.708956 0.598953
upperneck -17.9489 -0.0999271 3.00954
head -6.592 -0.214408 0.856907
rclavicle 1.94809e-014 6.95746e-015
rhumerus -27.8094 3.90991 -88.9048
rradius 36.5148
rwrist -2.94163
rhand -21.3174 -6.61105
rfingers 7.12502
rthumb 5.0679 -36.5304
lclavicle 1.94809e-014 6.95746e-015
lhumerus -28.8419 -7.69239 88.3709
lradius 34.9835
lwrist 23.0938
lhand -20.2805 10.1697
lfingers 7.12502
lthumb 6.06903 40.0628
rfemur -41.8646 4.34928 26.3832
rtibia 50.4862
rfoot -30.9632 -11.1338
rtoes 16.4399
lfemur -63.0122 5.07868 -26.3512
ltibia 43.7236
lfoot 9.95771 -4.29319
ltoes -16.3407
1125
root -47.905 16.4338 -5.14852 -881.406 86.5639 -902.115
lowerback 29.4627 -1.70441 1.56481
upperback 7.11507 -1.14498 -1.00298
thorax -8.27145 -0.291703 -1.66264
lowerneck 6.87507 -0.720775 0.605791
upperneck -17.9562 -0.10972 3.03699
head -6.59106 -0.221461 0.865243
rclavicle 1.19271e-015 2.38542e-015
rhumerus -27.8788 3.82822 -88.848
rradius 36.4766
rwrist -2.91156
rhand -21.3123 -6.60891
rfingers 7.12502
rthumb 5.07279 -36.5282
lclavicle 1.19271e-015 2.38542e-015
lhumerus -28.926 -7.7135 88.4325
lradius 34.9775
lwrist 23.0696
lhand -20.2083 10.2926
lfingers 7.12502
lthumb 6.13867 40.1836
rfemur -42.295 4.19791 26.3941
rtibia 50.6405
rfoot -30.761 -10.8426
rtoes 17.1192
lfemur -63.5228 4.95301 -25.8805
ltibia 46.4912
lfoot 9.09351 -3.91534
ltoes -15.1283
1126
root -47.9953 16.4294 -5.14263 -881.324 86.5351 -902.016
lowerback 29.5024 -1.7148 1.56768
upperback 7.12203 -1.15353 -0.990281
thorax -8.28292 -0.294999 -1.64693
lowerneck 6.8438 -0.723958 0.595475
upperneck -17.9981 -0.10761 3.06471
head -6.59891 -0.221146 0.875692
rclavicle 7.35503e-015 2.92213e-014
rhumerus -27.9452 3.77229 -88.7918
rradius 36.4335
rwrist -2.8932
rhand -21.2841 -6.64012
rfingers 7.12502
rthumb 5.10002 -36.5587
lclavicle 7.35503e-015 2.92213e-014
lhumerus -29.0098 -7.69768 88.4851
lradius 34.9731
lwrist 23.0421
lhand -20.1349 10.3932
lfingers 7.12502
lthumb 6.20963 40.2822
rfemur -42.7158 4.05878 26.4175
rtibia 50.7417
rfoot -30.5223 -10.5824
rtoes 17.7516
lfemur -63.9904 4.83496 -25.4175
ltibia 49.2345
lfoot 8.19581 -3.75394
ltoes -14.6052
1127
root -48.0842 16.4345 -5.13704 -880.883 86.5117 -901.57
lowerback 29.549 -1.7191 1.60479
upperback 7.11828 -1.14601 -0.983748
thorax -8.30995 -0.291934 -1.6636
lowerneck 6.83021 -0.739446 0.618047
upperneck -18.0764 -0.117609 3.08194
head -6.62155 -0.2282 0.878488
rclavicle 1.37161e-014 1.78906e-015
rhumerus -28.0279 3.67945 -88.7404
rradius 36.3825
rwrist -2.87328
rhand -21.2428 -6.68738
rfingers 7.12502
rthumb 5.13993 -36.605
lclavicle 1.37161e-014 1.78906e-015
lhumerus -29.1036 -7.72416 88.53
lradius 34.9681
lwrist 23.0201
lhand -20.0696 10.4711
lfingers 7.12502
lthumb 6.27263 40.3582
rfemur -43.0423 3.95266 26.4521
rtibia 50.6514
rfoot -30.1899 -10.3803
rtoes 18.3387
lfemur -64.3083 4.7961 -24.9903
ltibia 51.7952
lfoot 6.65887 -4.49542
ltoes -18.1695
1128
root -48.1719 16.4494 -5.13169 -880.166 86.4902 -900.86
lowerback 29.5938 -1.73025 1.64547
upperback 7.11543 -1.14497 -0.965659
thorax -8.3352 -0.291962 -1.66704
lowerneck 6.80175 -0.745978 0.607948
upperneck -18.1712 -0.1182 3.10183
head -6.64682 -0.228356 0.886867
rclavicle 1.09332e-014 3.33958e-014
rhumerus -28.0924 3.63808 -88.6868
rradius 36.3154
rwrist -2.86022
rhand -21.2042 -6.72826
rfingers 7.12502
rthumb 5.17716 -36.645
lclavicle 1.09332e-014 3.33958e-014
lhumerus -29.185 -7.71033 88.5712
lradius 34.9592
lwrist 22.9988
lhand -20.0313 10.4801
lfingers 7.12502
lthumb 6.30961 40.3661
rfemur -43.2818 3.88158 26.491
rtibia 50.3901
rfoot -29.7815 -10.2259
rtoes 18.9074
lfemur -64.4854 4.8092 -24.5816
ltibia 54.1876
lfoot 4.58562 -5.32532
ltoes -22.4742
1129
root -48.2595 16.4958 -5.12532 -879.331 86.4795 -900.034
lowerback 29.6436 -1.73352 1.69604
upperback 7.10942 -1.13166 -0.951534
thorax -8.36621 -0.286618 -1.68502
lowerneck 6.78482 -0.762009 0.620526
upperneck -18.2791 -0.130494 3.10844
head -6.67829 -0.234819 0.88824
rclavicle 3.02153e-014 1.31198e-014
rhumerus -28.1544 3.59104 -88.6353
rradius 36.2315
rwrist -2.84945
rhand -21.1749 -6.75857
rfingers 7.12502
rthumb 5.20546 -36.6746
lclavicle 3.02153e-014 1.31198e-014
lhumerus -29.2615 -7.7231 88.6071
lradius 34.9445
lwrist 22.986
lhand -20.0104 10.3918
lfingers 7.12502
lthumb 6.3298 40.2772
rfemur -43.3519 3.84659 26.5146
rtibia 49.8689
rfoot -29.2869 -10.1264
rtoes 19.4466
lfemur -64.3988 4.87367 -24.1842
ltibia 56.3007
lfoot 2.40206 -5.62954
ltoes -24.2712
1130
root -48.3442 16.5334 -5.12033 -878.541 86.4799 -899.258
lowerback 29.6882 -1.74085 1.7174
upperback 7.11244 -1.13014 -0.925691
thorax -8.38414 -0.285863 -1.66876
lowerneck 6.74045 -0.760063 0.59328
upperneck -18.3791 -0.124085 3.11351
head -6.70246 -0.228879 0.894137
rclavicle -2.34566e-014 -2.40529e-014
rhumerus -28.1787 3.62452 -88.5804
rradius 36.1277
rwrist -2.84263
rhand -21.1467 -6.78061
rfingers 7.12502
rthumb 5.23269 -36.696
lclavicle -2.34566e-014 -2.40529e-014
lhumerus -29.3091 -7.67064 88.6395
lradius 34.9194
lwrist 22.9605
lhand -19.9974 10.3266
lfingers 7.12502
lthumb 6.34232 40.2117
rfemur -43.3933 3.84934 26.5227
rtibia 49.2736
rfoot -28.7581 -10.0707
rtoes 19.9587
lfemur -64.2906 4.96835 -23.8275
ltibia 58.3504
lfoot 0.408489 -5.35296
ltoes -23.5947
1131
root -48.427 16.5718 -5.11631 -877.924 86.495 -898.653
lowerback 29.7423 -1.73415 1.74698
upperback 7.10392 -1.11119 -0.918471
thorax -8.41951 -0.277765 -1.68436
lowerneck 6.74138 -0.770595 0.605583
upperneck -18.4765 -0.130468 3.1148
head -6.73384 -0.23237 0.893448
rclavicle -9.14409e-015 4.17448e-015
rhumerus -28.2168 3.61323 -88.5356
rradius 36.0113
rwrist -2.82368
rhand -21.1239 -6.79844
rfingers 7.12502
rthumb 5.25469 -36.7133
lclavicle -9.14409e-015 4.17448e-015
lhumerus -29.3608 -7.6911 88.6657
lradius 34.8729
lwrist 22.9574
lhand -19.9829 10.2762
lfingers 7.12502
lthumb 6.3563 40.1609
rfemur -43.3855 3.8808 26.503
rtibia 48.6043
rfoot -28.2057 -10.0524
rtoes 20.4304
lfemur -64.1256 5.05451 -23.4887
ltibia 60.3287
lfoot -1.12733 -4.61944
ltoes -21.3726
